<?xml version="1.0" encoding="utf-8"?>
<!-- Generator: Adobe Illustrator 24.1.0, SVG Export Plug-In . SVG Version: 6.00 Build 0)  -->
<svg version="1.1" id="Layer_1" xmlns="http://www.w3.org/2000/svg" xmlns:xlink="http://www.w3.org/1999/xlink" x="0px" y="0px"
	 viewBox="0 0 107.5 114.7" style="enable-background:new 0 0 107.5 114.7;" xml:space="preserve">
<style type="text/css">
	.st0{display:none;}
	.st1{fill:#0C0C0C;}
</style>
<g id="Layer_1_1_" class="st0">
	
		<image style="display:inline;overflow:visible;enable-background:new    ;" width="1323" height="534" xlink:href="A8FB6DFB.png"  transform="matrix(0.24 0 0 0.24 0 0)">
	</image>
</g>
<g id="Layer_2_1_">
	<path class="st1" d="M44.2,113.6l-2.4,1.1h-3.3l-1.2-1.9l0.6-26.3l-0.6-7l-2.4-3.6l-2.9-3.4L27.1,69L24,67.1c0,0-3.7-2-4.8-2
		c-1.1,0-4.4-1.1-4.4-1.1l-5.3-3.3l-4.1-4l-3.2-5.5l-1.5-3.8L0,42.3v-3.6L0.9,35l1.6-3v4.9v4.5L3.1,45l1.5,3.6l2,3.2l2.8,2.4
		l2.1,1.6l2.4,1h2.3l1.2-1.4l0.4-4.6l-0.2-4.7L17,43.3l-2.4-3.6l-1.5-3.5L13,33.6l3.7,4.4l0.1-6.9l-1.2-2.5l-1.8-1.6L12,23.6
		L11.4,20l-0.1-5.4l1.5,1.5l2.6,6.5l1.2,2.5l0.7,0.7l1-0.4l0.1-6.1l1.6-6.8l1.8-4.1l1.7-2.5l1.5-1.2h0.9l-3.5,13.7l-0.5,2.5l0.5,0.9
		l0.8,0.1l4-4.8l3.4-3.5l2.4-1.6l-0.6,2L30,17.5l-5.8,7.4l-1.5,2.4l-0.7,3.3l-0.4,3v5.6l-0.3,8.3l0.7,4.6v1.5l3.9,5.5l2.3,3.5
		l1.4,1.5l3.9,2.3l0.8,0.8l1.3-0.2l2-1.5l1.1-3l3.8-15.4l1,0.7l0.1,5.1l-2,14l-1,6.3l2.4,3.3l0.1,1.4l-0.3,13.9L66.1,92v-9.2
		l-1.1-4.6l-0.8-2.9l1.2-2.9l1.8-1.7l-2.7-16.1L64.4,49l0.1-2.4l0.4-0.7l0.5,0.4l1.9,6.4l1.4,6.5l1.2,3.7l1.2,2.3l1.3,0.7l1.5-0.5
		l4.1-2.7l3.7-4.8l3.5-5.5l0.8-4.5v-4.4V30.8l-1.1-3.6l-1.6-3.3l-2.6-3.6l-3.3-4.6l-2.3-3.3l-0.1-1.6l1,0.2l2.9,2.6l3.4,3.8l1.6,2.4
		l0.8,1h1.3v-1.6L82,3l1.3,1.1l2.5,2.5L87,10l1.5,4.5l0.7,4.7v5.3l1,0.2l1.8-2.6l3.1-7.6l1-0.9v4v3.1l-0.5,1.9L94.2,25l-3.6,4.1
		l0.1,7.5l3.4-4l0.4,0.6l-1.1,4L90.6,42l-0.8,3.1l0.1,3.3v3.7l0.7,2.6c0,0,0.4,0.5,1,0.4c0.6-0.1,4.4-0.9,4.4-0.9l4.4-3.5l2.8-4.3
		l1.6-5.5v-4.1v-6l1.6,3.1l1.1,4.5l-0.7,6.8l-1.5,4.5l-2.6,4.8l-3.8,3.8l-3.7,2.6l-2.5,1.3l-5.7,1.8L83,65.9l-4.2,2.6l-3.9,3.2
		l-3,3.2c0,0-1.2,0.1-0.6,0.8s0.7,1.4,0.7,1.4v3.5l-0.5,7.1l-0.2,6.5l0.1,8.5l0.2,4.4l0.7,3.2l0.7,2.5l-0.1,0.7l-2,0.5l-1.5,0.5
		h-2.4l-0.9-0.9l-0.4-1.5l0.2-11.5V96l-23.6-0.2l0.1,3.4l0.2,5.1l0.3,3.6c0,0,0.2,1.8,0.3,2.5C43.4,111,44.2,113.6,44.2,113.6z"/>
</g>
</svg>
